<mxfile host="65bd71144e">
    <diagram id="pYJFyV6t3bLYYq94nRKP" name="Page-1">
        <mxGraphModel dx="385" dy="467" grid="1" gridSize="10" guides="1" tooltips="1" connect="1" arrows="1" fold="1" page="1" pageScale="1" pageWidth="850" pageHeight="1100" math="0" shadow="0">
            <root>
                <mxCell id="0"/>
                <mxCell id="1" parent="0"/>
                <mxCell id="2" value="remove all addresses unassociated with a wallet&lt;br&gt;(fixes partial imports)" style="rounded=1;whiteSpace=wrap;html=1;" vertex="1" parent="1">
                    <mxGeometry x="10" y="10" width="300" height="40" as="geometry"/>
                </mxCell>
                <mxCell id="3" value="update counts&lt;br&gt;(remember which ones are used an unused)" style="rounded=1;whiteSpace=wrap;html=1;" vertex="1" parent="1">
                    <mxGeometry x="10" y="60" width="300" height="40" as="geometry"/>
                </mxCell>
                <mxCell id="4" value="subscribe for updates&lt;br&gt;(on each address)" style="rounded=1;whiteSpace=wrap;html=1;" vertex="1" parent="1">
                    <mxGeometry x="10" y="110" width="300" height="40" as="geometry"/>
                </mxCell>
            </root>
        </mxGraphModel>
    </diagram>
</mxfile>